{
  "accessors": [
    {
      "bufferView": 2,
      "componentType": 5126,
      "count": 62397,
      "max": [
        0.22951200604438782,
        0.15375499427318573,
        0.1361989974975586
      ],
      "min": [
        -0.2282239943742752,
        -0.18095099925994873,
        -0.16816399991512299
      ],
      "type": "VEC3"
    },
    {
      "bufferView": 2,
      "byteOffset": 748764,
      "componentType": 5126,
      "count": 62397,
      "max": [
        0.9999816417694092,
        0.9999996423721313,
        0.999811589717865
      ],
      "min": [
        -0.9999904036521912,
        -0.999994695186615,
        -0.9999985098838806
      ],
      "type": "VEC3"
    },
    {
      "bufferView": 1,
      "componentType": 5126,
      "count": 62397,
      "max": [
        0.9969900250434875,
        0.9999849796295166
      ],
      "min": [
        2.6125799195142463e-05,
        0.0007955430191941559
      ],
      "type": "VEC2"
    },
    {
      "bufferView": 0,
      "componentType": 5125,
      "count": 337518,
      "type": "SCALAR"
    }
  ],
  "asset": {
    "extras": {
      "author": "pes04 (https://sketchfab.com/pes04)",
      "license": "CC-BY-4.0 (http://creativecommons.org/licenses/by/4.0/)",
      "source": "https://sketchfab.com/3d-models/christmas-village-901f0262183248b9be39942dc4cbeaaa",
      "title": "Christmas Village"
    },
    "generator": "Sketchfab-14.48.0",
    "version": "2.0"
  },
  "bufferViews": [
    {
      "buffer": 0,
      "byteLength": 1350072,
      "name": "floatBufferViews",
      "target": 34963
    },
    {
      "buffer": 0,
      "byteLength": 499176,
      "byteOffset": 1350072,
      "byteStride": 8,
      "name": "floatBufferViews",
      "target": 34962
    },
    {
      "buffer": 0,
      "byteLength": 1497528,
      "byteOffset": 1849248,
      "byteStride": 12,
      "name": "floatBufferViews",
      "target": 34962
    }
  ],
  "buffers": [
    {
      "byteLength": 3346776,
      "uri": "scene.bin"
    }
  ],
  "images": [
    {
      "uri": "textures/material_1_baseColor.jpeg"
    },
    {
      "uri": "textures/material_1_metallicRoughness.png"
    }
  ],
  "materials": [
    {
      "doubleSided": true,
      "name": "material_1",
      "occlusionTexture": {
        "index": 1
      },
      "pbrMetallicRoughness": {
        "baseColorTexture": {
          "index": 0
        },
        "metallicFactor": 0.0,
        "metallicRoughnessTexture": {
          "index": 1
        }
      }
    }
  ],
  "meshes": [
    {
      "name": "Object_0",
      "primitives": [
        {
          "attributes": {
            "NORMAL": 1,
            "POSITION": 0,
            "TEXCOORD_0": 2
          },
          "indices": 3,
          "material": 0,
          "mode": 4
        }
      ]
    }
  ],
  "nodes": [
    {
      "children": [
        1
      ],
      "matrix": [
        1.0,
        0.0,
        0.0,
        0.0,
        0.0,
        2.220446049250313e-16,
        -1.0,
        0.0,
        0.0,
        1.0,
        2.220446049250313e-16,
        0.0,
        0.0,
        0.0,
        0.0,
        1.0
      ],
      "name": "Sketchfab_model"
    },
    {
      "children": [
        2
      ],
      "name": "root"
    },
    {
      "children": [
        3
      ],
      "matrix": [
        1.0,
        0.0,
        0.0,
        0.0,
        0.0,
        2.220446049250313e-16,
        1.0,
        0.0,
        0.0,
        -1.0,
        2.220446049250313e-16,
        0.0,
        0.0,
        0.0,
        0.0,
        1.0
      ],
      "name": "GLTF_SceneRootNode"
    },
    {
      "children": [
        4
      ],
      "matrix": [
        1.0,
        0.0,
        0.0,
        0.0,
        0.0,
        -1.685873969314855e-07,
        0.9999999999999858,
        0.0,
        0.0,
        -0.9999999999999858,
        -1.685873969314855e-07,
        0.0,
        0.0,
        0.0,
        0.0,
        1.0
      ],
      "name": "export_1"
    },
    {
      "mesh": 0,
      "name": "Object_4"
    }
  ],
  "samplers": [
    {
      "magFilter": 9729,
      "minFilter": 9987,
      "wrapS": 10497,
      "wrapT": 10497
    }
  ],
  "scene": 0,
  "scenes": [
    {
      "name": "Sketchfab_Scene",
      "nodes": [
        0
      ]
    }
  ],
  "textures": [
    {
      "sampler": 0,
      "source": 0
    },
    {
      "sampler": 0,
      "source": 1
    }
  ]
}
